<svg width="280" height="82" viewBox="0 0 280 82" fill="none" xmlns="http://www.w3.org/2000/svg">
<path d="M80.7557 33.8376C86.6708 36.7807 86.6708 45.2193 80.7557 48.1624L35.3514 70.7535C30.0331 73.3996 23.7877 69.5313 23.7877 63.5911L23.7877 18.4089C23.7877 12.4687 30.0331 8.60038 35.3514 11.2465L80.7557 33.8376Z" fill="#A855F7"/>
<path d="M110.605 33.8376C116.52 36.7807 116.52 45.2193 110.605 48.1624L65.2005 70.7535C59.8822 73.3996 53.6368 69.5313 53.6368 63.5911L53.6368 18.4089C53.6368 12.4687 59.8822 8.60038 65.2005 11.2465L110.605 33.8376Z" fill="#7E22CE" fill-opacity="0.35"/>
<path d="M147.648 35.9205C147.557 35.0038 147.167 34.2917 146.477 33.7841C145.788 33.2765 144.852 33.0227 143.67 33.0227C142.867 33.0227 142.189 33.1364 141.636 33.3636C141.083 33.5833 140.659 33.8902 140.364 34.2841C140.076 34.678 139.932 35.125 139.932 35.625C139.917 36.0417 140.004 36.4053 140.193 36.7159C140.39 37.0265 140.659 37.2955 141 37.5227C141.341 37.7424 141.735 37.9356 142.182 38.1023C142.629 38.2614 143.106 38.3977 143.614 38.5114L145.705 39.0114C146.72 39.2386 147.652 39.5417 148.5 39.9205C149.348 40.2992 150.083 40.7652 150.705 41.3182C151.326 41.8712 151.807 42.5227 152.148 43.2727C152.496 44.0227 152.674 44.8826 152.682 45.8523C152.674 47.2765 152.311 48.5114 151.591 49.5568C150.879 50.5947 149.848 51.4015 148.5 51.9773C147.159 52.5455 145.542 52.8295 143.648 52.8295C141.769 52.8295 140.133 52.5417 138.739 51.9659C137.352 51.3902 136.269 50.5379 135.489 49.4091C134.716 48.2727 134.311 46.8674 134.273 45.1932H139.034C139.087 45.9735 139.311 46.625 139.705 47.1477C140.106 47.6629 140.64 48.053 141.307 48.3182C141.981 48.5758 142.742 48.7045 143.591 48.7045C144.424 48.7045 145.148 48.5833 145.761 48.3409C146.383 48.0985 146.864 47.7614 147.205 47.3295C147.545 46.8977 147.716 46.4015 147.716 45.8409C147.716 45.3182 147.561 44.8788 147.25 44.5227C146.947 44.1667 146.5 43.8636 145.909 43.6136C145.326 43.3636 144.61 43.1364 143.761 42.9318L141.227 42.2955C139.265 41.8182 137.716 41.072 136.58 40.0568C135.443 39.0417 134.879 37.6742 134.886 35.9545C134.879 34.5455 135.254 33.3144 136.011 32.2614C136.777 31.2083 137.826 30.3864 139.159 29.7955C140.492 29.2045 142.008 28.9091 143.705 28.9091C145.432 28.9091 146.939 29.2045 148.227 29.7955C149.523 30.3864 150.53 31.2083 151.25 32.2614C151.97 33.3144 152.341 34.5341 152.364 35.9205H147.648ZM155.901 59.0455V35.0455H160.673V37.9773H160.889C161.101 37.5076 161.408 37.0303 161.81 36.5455C162.219 36.053 162.749 35.6439 163.401 35.3182C164.06 34.9848 164.878 34.8182 165.855 34.8182C167.128 34.8182 168.302 35.1515 169.378 35.8182C170.454 36.4773 171.313 37.4735 171.957 38.8068C172.601 40.1326 172.923 41.7955 172.923 43.7955C172.923 45.7424 172.609 47.3864 171.98 48.7273C171.359 50.0606 170.51 51.072 169.435 51.7614C168.366 52.4432 167.17 52.7841 165.844 52.7841C164.904 52.7841 164.105 52.6288 163.446 52.3182C162.795 52.0076 162.26 51.6174 161.844 51.1477C161.427 50.6705 161.109 50.1894 160.889 49.7045H160.741V59.0455H155.901ZM160.639 43.7727C160.639 44.8106 160.783 45.7159 161.071 46.4886C161.359 47.2614 161.776 47.8636 162.321 48.2955C162.866 48.7197 163.529 48.9318 164.31 48.9318C165.098 48.9318 165.764 48.7159 166.31 48.2841C166.855 47.8447 167.268 47.2386 167.548 46.4659C167.836 45.6856 167.98 44.7879 167.98 43.7727C167.98 42.7652 167.84 41.8788 167.56 41.1136C167.279 40.3485 166.866 39.75 166.321 39.3182C165.776 38.8864 165.105 38.6705 164.31 38.6705C163.522 38.6705 162.855 38.8788 162.31 39.2955C161.772 39.7121 161.359 40.303 161.071 41.0682C160.783 41.8333 160.639 42.7348 160.639 43.7727ZM184.105 52.8409C182.31 52.8409 180.764 52.4773 179.469 51.75C178.181 51.0152 177.188 49.9773 176.491 48.6364C175.795 47.2879 175.446 45.6932 175.446 43.8523C175.446 42.0568 175.795 40.4811 176.491 39.125C177.188 37.7689 178.17 36.7121 179.435 35.9545C180.707 35.197 182.2 34.8182 183.912 34.8182C185.063 34.8182 186.135 35.0038 187.128 35.375C188.128 35.7386 188.999 36.2879 189.741 37.0227C190.491 37.7576 191.075 38.6818 191.491 39.7955C191.908 40.9015 192.116 42.197 192.116 43.6818V45.0114H177.378V42.0114H187.56C187.56 41.3144 187.408 40.697 187.105 40.1591C186.802 39.6212 186.382 39.2008 185.844 38.8977C185.313 38.5871 184.696 38.4318 183.991 38.4318C183.257 38.4318 182.605 38.6023 182.037 38.9432C181.476 39.2765 181.037 39.7273 180.719 40.2955C180.401 40.8561 180.238 41.4811 180.23 42.1705V45.0227C180.23 45.8864 180.389 46.6326 180.707 47.2614C181.033 47.8902 181.491 48.375 182.082 48.7159C182.673 49.0568 183.374 49.2273 184.185 49.2273C184.723 49.2273 185.215 49.1515 185.662 49C186.109 48.8485 186.491 48.6212 186.81 48.3182C187.128 48.0152 187.37 47.6439 187.537 47.2045L192.014 47.5C191.787 48.5758 191.321 49.5152 190.616 50.3182C189.92 51.1136 189.018 51.7348 187.912 52.1818C186.813 52.6212 185.545 52.8409 184.105 52.8409ZM200.116 42.4091V52.5H195.276V35.0455H199.889V38.125H200.094C200.48 37.1098 201.128 36.3068 202.037 35.7159C202.946 35.1174 204.048 34.8182 205.344 34.8182C206.556 34.8182 207.613 35.0833 208.514 35.6136C209.416 36.1439 210.116 36.9015 210.616 37.8864C211.116 38.8636 211.366 40.0303 211.366 41.3864V52.5H206.526V42.25C206.533 41.1818 206.26 40.3485 205.707 39.75C205.154 39.1439 204.393 38.8409 203.423 38.8409C202.772 38.8409 202.196 38.9811 201.696 39.2614C201.204 39.5417 200.817 39.9508 200.537 40.4886C200.264 41.0189 200.124 41.6591 200.116 42.4091ZM221.614 52.7841C220.288 52.7841 219.087 52.4432 218.011 51.7614C216.943 51.072 216.095 50.0606 215.466 48.7273C214.845 47.3864 214.534 45.7424 214.534 43.7955C214.534 41.7955 214.856 40.1326 215.5 38.8068C216.144 37.4735 217 36.4773 218.068 35.8182C219.144 35.1515 220.322 34.8182 221.602 34.8182C222.58 34.8182 223.394 34.9848 224.045 35.3182C224.705 35.6439 225.235 36.053 225.636 36.5455C226.045 37.0303 226.356 37.5076 226.568 37.9773H226.716V29.2273H231.545V52.5H226.773V49.7045H226.568C226.341 50.1894 226.019 50.6705 225.602 51.1477C225.193 51.6174 224.659 52.0076 224 52.3182C223.348 52.6288 222.553 52.7841 221.614 52.7841ZM223.148 48.9318C223.928 48.9318 224.587 48.7197 225.125 48.2955C225.67 47.8636 226.087 47.2614 226.375 46.4886C226.67 45.7159 226.818 44.8106 226.818 43.7727C226.818 42.7348 226.674 41.8333 226.386 41.0682C226.098 40.303 225.682 39.7121 225.136 39.2955C224.591 38.8788 223.928 38.6705 223.148 38.6705C222.352 38.6705 221.682 38.8864 221.136 39.3182C220.591 39.75 220.178 40.3485 219.898 41.1136C219.617 41.8788 219.477 42.7652 219.477 43.7727C219.477 44.7879 219.617 45.6856 219.898 46.4659C220.186 47.2386 220.598 47.8447 221.136 48.2841C221.682 48.7159 222.352 48.9318 223.148 48.9318ZM235.526 52.5V35.0455H240.366V52.5H235.526ZM237.957 32.7955C237.238 32.7955 236.62 32.5568 236.105 32.0795C235.598 31.5947 235.344 31.0152 235.344 30.3409C235.344 29.6742 235.598 29.1023 236.105 28.625C236.62 28.1402 237.238 27.8977 237.957 27.8977C238.677 27.8977 239.291 28.1402 239.798 28.625C240.313 29.1023 240.571 29.6742 240.571 30.3409C240.571 31.0152 240.313 31.5947 239.798 32.0795C239.291 32.5568 238.677 32.7955 237.957 32.7955ZM244.153 52.5V49.6136L252.699 39.0341V38.9091H244.449V35.0455H258.528V38.1932L250.506 48.5114V48.6364H258.824V52.5H244.153ZM269.98 52.8409C268.185 52.8409 266.639 52.4773 265.344 51.75C264.056 51.0152 263.063 49.9773 262.366 48.6364C261.67 47.2879 261.321 45.6932 261.321 43.8523C261.321 42.0568 261.67 40.4811 262.366 39.125C263.063 37.7689 264.045 36.7121 265.31 35.9545C266.582 35.197 268.075 34.8182 269.787 34.8182C270.938 34.8182 272.01 35.0038 273.003 35.375C274.003 35.7386 274.874 36.2879 275.616 37.0227C276.366 37.7576 276.95 38.6818 277.366 39.7955C277.783 40.9015 277.991 42.197 277.991 43.6818V45.0114H263.253V42.0114H273.435C273.435 41.3144 273.283 40.697 272.98 40.1591C272.677 39.6212 272.257 39.2008 271.719 38.8977C271.188 38.5871 270.571 38.4318 269.866 38.4318C269.132 38.4318 268.48 38.6023 267.912 38.9432C267.351 39.2765 266.912 39.7273 266.594 40.2955C266.276 40.8561 266.113 41.4811 266.105 42.1705V45.0227C266.105 45.8864 266.264 46.6326 266.582 47.2614C266.908 47.8902 267.366 48.375 267.957 48.7159C268.548 49.0568 269.249 49.2273 270.06 49.2273C270.598 49.2273 271.09 49.1515 271.537 49C271.984 48.8485 272.366 48.6212 272.685 48.3182C273.003 48.0152 273.245 47.6439 273.412 47.2045L277.889 47.5C277.662 48.5758 277.196 49.5152 276.491 50.3182C275.795 51.1136 274.893 51.7348 273.787 52.1818C272.688 52.6212 271.42 52.8409 269.98 52.8409Z" fill="white"/>
</svg>
